<svg xmlns="http://www.w3.org/2000/svg" xmlns:xlink="http://www.w3.org/1999/xlink" width="1077.12" height="302.4" viewBox="0 0 807.84 226.8"><g data-name="P"><clipPath id="a"><path transform="matrix(1 0 0 -1 0 226.8)" d="M0 0h807.84v226.8H0z" fill-rule="evenodd"/></clipPath><g clip-path="url(#a)"><path d="M0 226.8h807.84V0H0z" fill="#fff" fill-rule="evenodd"/></g></g><path stroke-width="2.28" stroke-dasharray="18.24,6.84" stroke-miterlimit="10" fill="none" stroke="#000" d="M21.06 223.62h585V6.42h-585z" data-name="P"/><path d="M48.84 114.96c0-7.69 6.232-13.92 13.92-13.92s13.92 6.23 13.92 13.92c0 7.69-6.232 13.92-13.92 13.92s-13.92-6.23-13.92-13.92z" fill="#c00000" fill-rule="evenodd" data-name="P"/><g data-name="P"><clipPath id="b"><path transform="matrix(1 0 0 -1 0 226.8)" d="M0 0h807.84v226.8H0z" fill-rule="evenodd"/></clipPath><g clip-path="url(#b)"><symbol id="c"><path d="M.268.492V.1H.37C.393.1.41.095.42.086A.046.046 0 0 0 .436.05.047.047 0 0 0 .42.014C.41.004.393 0 .37 0H.066C.043 0 .026.005.015.014A.048.048 0 0 0 0 .05c0 .015.005.027.015.036C.025.096.043.1.067.1h.101v.392H.067C.043.492.026.496.015.505A.048.048 0 0 0 0 .542c0 .015.005.027.015.036.01.01.028.014.052.014h.302C.393.592.41.587.42.578A.046.046 0 0 0 .436.542.047.047 0 0 0 .42.505C.41.496.393.492.37.492H.267z"/></symbol><use xlink:href="#c" transform="matrix(15.744 0 0 -15.744 59.395 119.5)" fill="#fff"/></g></g><path d="M48.84 170.28c0-7.489 6.071-13.56 13.56-13.56 7.489 0 13.56 6.071 13.56 13.56 0 7.489-6.071 13.56-13.56 13.56-7.489 0-13.56-6.071-13.56-13.56z" fill="#4472c4" fill-rule="evenodd" data-name="P"/><g data-name="P"><clipPath id="d"><path transform="matrix(1 0 0 -1 0 226.8)" d="M0 0h807.84v226.8H0z" fill-rule="evenodd"/></clipPath><g clip-path="url(#d)"><symbol id="e"><path d="M.092.04A.086.086 0 0 0 .07.02.04.04 0 0 0 .05.016.048.048 0 0 0 .015.03C.004.04 0 .058 0 .082v.067c0 .025.005.042.014.052.01.01.021.015.037.015A.046.046 0 0 0 .08.207.058.058 0 0 0 .098.176a.083.083 0 0 1 .013-.03c.01-.01.026-.02.05-.03A.197.197 0 0 1 .242.1c.044 0 .08.01.11.031.017.013.026.029.026.047a.054.054 0 0 1-.013.035.094.094 0 0 1-.043.027.672.672 0 0 1-.087.02.472.472 0 0 0-.124.037.166.166 0 0 0-.091.145c0 .048.02.09.06.125.04.037.092.055.156.055.026 0 .05-.003.072-.01a.195.195 0 0 0 .06-.025C.38.6.394.606.407.606A.045.045 0 0 0 .442.59C.452.58.457.563.457.54V.464C.457.44.452.423.442.413A.046.046 0 0 0 .407.397.05.05 0 0 0 .375.41C.367.414.362.425.358.442a.092.092 0 0 1-.013.036.107.107 0 0 1-.043.03.159.159 0 0 1-.065.013A.134.134 0 0 1 .15.496C.13.48.12.462.12.444.12.43.124.419.132.408A.087.087 0 0 1 .17.38.727.727 0 0 1 .264.359.588.588 0 0 0 .382.326.163.163 0 0 0 .45.269.155.155 0 0 0 .478.177.148.148 0 0 0 .426.06.264.264 0 0 0 .249 0a.322.322 0 0 0-.157.04z"/></symbol><use xlink:href="#e" transform="matrix(15.72 0 0 -15.72 58.719 175.142)" fill="#fff"/></g></g><path stroke-width="2.28" stroke-miterlimit="10" fill="none" stroke="#767171" d="m62.817 128.94-.357 27.868" data-name="P"/><path d="M160.32 170.28c0-7.489 6.07-13.56 13.56-13.56s13.56 6.071 13.56 13.56c0 7.489-6.07 13.56-13.56 13.56s-13.56-6.071-13.56-13.56z" fill="#4472c4" fill-rule="evenodd" data-name="P"/><g data-name="P"><clipPath id="f"><path transform="matrix(1 0 0 -1 0 226.8)" d="M0 0h807.84v226.8H0z" fill-rule="evenodd"/></clipPath><g clip-path="url(#f)"><use xlink:href="#e" transform="matrix(15.72 0 0 -15.72 170.175 175.142)" fill="#fff"/></g></g><path stroke-width="2.28" stroke-miterlimit="10" fill="none" stroke="#767171" d="M160.39 170.34h-28.57" data-name="P"/><path d="M104.52 114.96c0-7.69 6.26-13.92 13.98-13.92 7.72 0 13.98 6.23 13.98 13.92 0 7.69-6.26 13.92-13.98 13.92-7.72 0-13.98-6.23-13.98-13.92z" fill="#4472c4" fill-rule="evenodd" data-name="P"/><g data-name="P"><clipPath id="g"><path transform="matrix(1 0 0 -1 0 226.8)" d="M0 0h807.84v226.8H0z" fill-rule="evenodd"/></clipPath><g clip-path="url(#g)"><use xlink:href="#e" transform="matrix(15.744 0 0 -15.744 114.806 119.73)" fill="#fff"/></g></g><path d="M104.52 170.28c0-7.489 6.1-13.56 13.62-13.56s13.62 6.071 13.62 13.56c0 7.489-6.1 13.56-13.62 13.56s-13.62-6.071-13.62-13.56z" fill="#4472c4" fill-rule="evenodd" data-name="P"/><g data-name="P"><clipPath id="h"><path transform="matrix(1 0 0 -1 0 226.8)" d="M0 0h807.84v226.8H0z" fill-rule="evenodd"/></clipPath><g clip-path="url(#h)"><use xlink:href="#e" transform="matrix(15.72 0 0 -15.72 114.445 175.142)" fill="#fff"/></g></g><path stroke-width="2.28" stroke-miterlimit="10" fill="none" stroke="#767171" d="m118.5 128.94-.36 27.868" data-name="P"/><path d="M104.52 58.92c0-7.49 6.1-13.56 13.62-13.56s13.62 6.07 13.62 13.56-6.1 13.56-13.62 13.56-13.62-6.07-13.62-13.56z" fill="#4472c4" fill-rule="evenodd" data-name="P"/><g data-name="P"><clipPath id="i"><path transform="matrix(1 0 0 -1 0 226.8)" d="M0 0h807.84v226.8H0z" fill-rule="evenodd"/></clipPath><g clip-path="url(#i)"><use xlink:href="#e" transform="matrix(15.72 0 0 -15.72 114.445 63.64)" fill="#fff"/></g></g><path stroke-width="2.28" stroke-miterlimit="10" fill="none" stroke="#767171" d="m118.14 72.54.36 28.56M108.57 68.58 72.66 105.2M108.69 124.86l-36.63 35.924M108.57 160.784 72.66 124.86M104.59 170.34H76.02M164.37 160.784l-35.91-35.924" data-name="P"/><path stroke-width=".96" stroke-miterlimit="10" fill="none" stroke="#515151" d="M34.92 198.48h167.16V31.32H34.92z" data-name="P"/><g data-name="P"><clipPath id="j"><path transform="matrix(1 0 0 -1 0 226.8)" d="M0 0h807.84v226.8H0z" fill-rule="evenodd"/></clipPath><g clip-path="url(#j)"><symbol id="k"><path d="M.243.208a4.986 4.986 0 0 1-.077.377.135.135 0 0 1-.013.033.037.037 0 0 1-.012.013.02.02 0 0 1-.011.004.031.031 0 0 1-.023-.01.176.176 0 0 1-.026-.042l-.045.02c.019.034.04.06.065.077a.139.139 0 0 0 .083.026.139.139 0 0 0 .06-.012.09.09 0 0 0 .037-.03.154.154 0 0 0 .022-.049A4.676 4.676 0 0 0 .345.344a.732.732 0 0 1 .083.151c.02.05.03.093.03.132 0 .012-.003.022-.01.028-.005.006-.015.01-.03.01l.007.033h.138L.58.666A.73.73 0 0 0 .55.584C.53.537.501.484.467.426A2.502 2.502 0 0 0 .255.121.572.572 0 0 0 .173.038a.187.187 0 0 0-.052-.03A.157.157 0 0 0 .068 0 .215.215 0 0 0 0 .01l.024.111h.052c0-.014.002-.024.006-.03.003-.007.01-.01.02-.01.008 0 .015.002.022.004A.109.109 0 0 1 .15.102a1.29 1.29 0 0 1 .093.106z"/></symbol><use xlink:href="#k" transform="matrix(15.72 0 0 -15.72 167.574 53.134)"/></g><clipPath id="l"><path transform="matrix(1 0 0 -1 0 226.8)" d="M0 0h807.84v226.8H0z" fill-rule="evenodd"/></clipPath><g clip-path="url(#l)"><symbol id="m"><path d="M.214 0C.142 0 .088.026.053.079A.432.432 0 0 0 0 .317C0 .373.005.42.016.46c.011.041.026.075.046.101a.19.19 0 0 0 .16.08A.207.207 0 0 0 .32.622.174.174 0 0 0 .388.559.283.283 0 0 0 .426.46.642.642 0 0 0 .438.33C.438.22.42.138.381.082A.19.19 0 0 0 .214 0M.1.329c0-.049.002-.09.007-.126A.344.344 0 0 1 .13.116a.12.12 0 0 1 .037-.05.09.09 0 0 1 .054-.017c.02 0 .037.005.051.015C.287.074.3.09.31.111.319.133.326.16.33.192A.869.869 0 0 1 .33.438a.366.366 0 0 1-.023.089.12.12 0 0 1-.037.052.082.082 0 0 1-.05.016.09.09 0 0 1-.058-.018.119.119 0 0 1-.037-.052A.349.349 0 0 1 .106.44 1.047 1.047 0 0 1 .101.329z"/></symbol><use xlink:href="#m" transform="matrix(11.52 0 0 -11.52 177.69 53.138)"/></g></g><path d="M243.84 114.96c0-7.69 6.23-13.92 13.92-13.92 7.69 0 13.92 6.23 13.92 13.92 0 7.69-6.23 13.92-13.92 13.92-7.69 0-13.92-6.23-13.92-13.92z" fill="#c00000" fill-rule="evenodd" data-name="P"/><g data-name="P"><clipPath id="n"><path transform="matrix(1 0 0 -1 0 226.8)" d="M0 0h807.84v226.8H0z" fill-rule="evenodd"/></clipPath><g clip-path="url(#n)"><use xlink:href="#c" transform="matrix(15.744 0 0 -15.744 254.441 119.5)" fill="#fff"/></g></g><path d="M243.84 170.28c0-7.489 6.07-13.56 13.56-13.56s13.56 6.071 13.56 13.56c0 7.489-6.07 13.56-13.56 13.56s-13.56-6.071-13.56-13.56z" fill="#c00000" fill-rule="evenodd" data-name="P"/><g data-name="P"><clipPath id="o"><path transform="matrix(1 0 0 -1 0 226.8)" d="M0 0h807.84v226.8H0z" fill-rule="evenodd"/></clipPath><g clip-path="url(#o)"><use xlink:href="#c" transform="matrix(15.72 0 0 -15.72 254.08 174.912)" fill="#fff"/></g></g><path stroke-width="2.28" stroke-miterlimit="10" fill="none" stroke="#767171" d="m257.82 128.94-.36 27.868" data-name="P"/><path d="M355.32 170.28c0-7.489 6.07-13.56 13.56-13.56s13.56 6.071 13.56 13.56c0 7.489-6.07 13.56-13.56 13.56s-13.56-6.071-13.56-13.56z" fill="#4472c4" fill-rule="evenodd" data-name="P"/><g data-name="P"><clipPath id="p"><path transform="matrix(1 0 0 -1 0 226.8)" d="M0 0h807.84v226.8H0z" fill-rule="evenodd"/></clipPath><g clip-path="url(#p)"><use xlink:href="#e" transform="matrix(15.72 0 0 -15.72 365.225 175.142)" fill="#fff"/></g></g><path stroke-width="2.28" stroke-miterlimit="10" fill="none" stroke="#767171" d="M355.39 170.34h-28.57" data-name="P"/><path d="M299.52 114.96c0-7.69 6.26-13.92 13.98-13.92 7.72 0 13.98 6.23 13.98 13.92 0 7.69-6.26 13.92-13.98 13.92-7.72 0-13.98-6.23-13.98-13.92z" fill="#4472c4" fill-rule="evenodd" data-name="P"/><g data-name="P"><clipPath id="q"><path transform="matrix(1 0 0 -1 0 226.8)" d="M0 0h807.84v226.8H0z" fill-rule="evenodd"/></clipPath><g clip-path="url(#q)"><use xlink:href="#e" transform="matrix(15.744 0 0 -15.744 309.856 119.73)" fill="#fff"/></g></g><path d="M299.52 170.28c0-7.489 6.1-13.56 13.62-13.56s13.62 6.071 13.62 13.56c0 7.489-6.1 13.56-13.62 13.56s-13.62-6.071-13.62-13.56z" fill="#4472c4" fill-rule="evenodd" data-name="P"/><g data-name="P"><clipPath id="r"><path transform="matrix(1 0 0 -1 0 226.8)" d="M0 0h807.84v226.8H0z" fill-rule="evenodd"/></clipPath><g clip-path="url(#r)"><use xlink:href="#e" transform="matrix(15.72 0 0 -15.72 309.495 175.142)" fill="#fff"/></g></g><path stroke-width="2.28" stroke-miterlimit="10" fill="none" stroke="#767171" d="m313.62 128.94-.36 27.868" data-name="P"/><path d="M299.52 58.92c0-7.49 6.1-13.56 13.62-13.56s13.62 6.07 13.62 13.56-6.1 13.56-13.62 13.56-13.62-6.07-13.62-13.56z" fill="#c00000" fill-rule="evenodd" data-name="P"/><g data-name="P"><clipPath id="s"><path transform="matrix(1 0 0 -1 0 226.8)" d="M0 0h807.84v226.8H0z" fill-rule="evenodd"/></clipPath><g clip-path="url(#s)"><use xlink:href="#c" transform="matrix(15.72 0 0 -15.72 309.81 63.41)" fill="#fff"/></g></g><path stroke-width="2.28" stroke-miterlimit="10" fill="none" stroke="#767171" d="m313.26 72.54.36 28.56M303.57 68.58l-35.91 36.62M303.69 124.86l-36.63 35.924M303.57 160.784l-35.91-35.924M299.59 170.34h-28.57M359.37 160.784l-35.91-35.924" data-name="P"/><path stroke-width=".96" stroke-miterlimit="10" fill="none" stroke="#515151" d="M229.92 198.48h167.16V31.32H229.92z" data-name="P"/><g data-name="P"><clipPath id="t"><path transform="matrix(1 0 0 -1 0 226.8)" d="M0 0h807.84v226.8H0z" fill-rule="evenodd"/></clipPath><g clip-path="url(#t)"><use xlink:href="#k" transform="matrix(15.72 0 0 -15.72 362.624 53.134)"/></g><clipPath id="u"><path transform="matrix(1 0 0 -1 0 226.8)" d="M0 0h807.84v226.8H0z" fill-rule="evenodd"/></clipPath><g clip-path="url(#u)"><symbol id="v"><path d="M.268.129A.31.31 0 0 1 .27.084.057.057 0 0 1 .277.071a.048.048 0 0 1 .01-.009.04.04 0 0 1 .015-.01.63.63 0 0 1 .112-.01V0H.027v.042A3.372 3.372 0 0 1 .11.048a.21.21 0 0 1 .022.005.07.07 0 0 1 .027.016.04.04 0 0 1 .008.013.166.166 0 0 1 .006.047v.35c0 .013-.002.022-.007.027C.161.51.154.514.145.514A.11.11 0 0 1 .1.498 1.019 1.019 0 0 1 .023.452.37.37 0 0 0 0 .497 33.407 33.407 0 0 1 .24.63h.03a3.583 3.583 0 0 1-.002-.09V.13z"/></symbol><use xlink:href="#v" transform="matrix(11.52 0 0 -11.52 372.6 53.02)"/></g></g><path d="M438.84 114.96c0-7.69 6.23-13.92 13.92-13.92 7.69 0 13.92 6.23 13.92 13.92 0 7.69-6.23 13.92-13.92 13.92-7.69 0-13.92-6.23-13.92-13.92z" fill="#548235" fill-rule="evenodd" data-name="P"/><g data-name="P"><clipPath id="w"><path transform="matrix(1 0 0 -1 0 226.8)" d="M0 0h807.84v226.8H0z" fill-rule="evenodd"/></clipPath><g clip-path="url(#w)"><symbol id="x"><path d="M.183.226V.1h.036C.243.1.259.095.27.086A.046.046 0 0 0 .286.05.047.047 0 0 0 .27.014C.26.004.243 0 .219 0H.067C.043 0 .026.005.015.014A.048.048 0 0 0 0 .05c0 .015.005.027.016.036.01.01.027.014.05.014h.017v.392H.067C.043.492.026.496.015.505A.048.048 0 0 0 0 .542c0 .015.005.027.015.036.01.01.028.014.052.014h.226C.364.592.42.574.458.539A.164.164 0 0 0 .516.412C.516.38.507.352.49.326A.239.239 0 0 0 .406.258.636.636 0 0 0 .535.1C.56.1.577.097.585.092A.049.049 0 0 0 .607.05.047.047 0 0 0 .592.014C.582.004.565 0 .54 0H.483C.403.125.335.2.282.226h-.1m0 .1h.079C.29.326.316.331.338.34.37.351.39.363.4.376.41.39.416.402.416.415c0 .019-.01.036-.03.052-.02.017-.05.025-.089.025H.183V.326z"/></symbol><use xlink:href="#x" transform="matrix(15.744 0 0 -15.744 448.423 119.5)" fill="#fff"/></g></g><path d="M438.84 170.28c0-7.489 6.1-13.56 13.62-13.56s13.62 6.071 13.62 13.56c0 7.489-6.1 13.56-13.62 13.56s-13.62-6.071-13.62-13.56z" fill="#c00000" fill-rule="evenodd" data-name="P"/><g data-name="P"><clipPath id="y"><path transform="matrix(1 0 0 -1 0 226.8)" d="M0 0h807.84v226.8H0z" fill-rule="evenodd"/></clipPath><g clip-path="url(#y)"><use xlink:href="#c" transform="matrix(15.72 0 0 -15.72 449.13 174.912)" fill="#fff"/></g></g><path stroke-width="2.28" stroke-miterlimit="10" fill="none" stroke="#767171" d="m452.82 128.94-.36 27.868" data-name="P"/><path d="M550.32 170.28c0-7.489 6.07-13.56 13.56-13.56s13.56 6.071 13.56 13.56c0 7.489-6.07 13.56-13.56 13.56s-13.56-6.071-13.56-13.56z" fill="#4472c4" fill-rule="evenodd" data-name="P"/><g data-name="P"><clipPath id="z"><path transform="matrix(1 0 0 -1 0 226.8)" d="M0 0h807.84v226.8H0z" fill-rule="evenodd"/></clipPath><g clip-path="url(#z)"><use xlink:href="#e" transform="matrix(15.72 0 0 -15.72 560.275 175.142)" fill="#fff"/></g></g><path stroke-width="2.28" stroke-miterlimit="10" fill="none" stroke="#767171" d="M550.39 170.34h-28.57" data-name="P"/><path d="M494.64 114.96c0-7.69 6.23-13.92 13.92-13.92 7.69 0 13.92 6.23 13.92 13.92 0 7.69-6.23 13.92-13.92 13.92-7.69 0-13.92-6.23-13.92-13.92z" fill="#c00000" fill-rule="evenodd" data-name="P"/><g data-name="P"><clipPath id="A"><path transform="matrix(1 0 0 -1 0 226.8)" d="M0 0h807.84v226.8H0z" fill-rule="evenodd"/></clipPath><g clip-path="url(#A)"><use xlink:href="#c" transform="matrix(15.744 0 0 -15.744 505.221 119.5)" fill="#fff"/></g></g><path d="M494.64 170.28c0-7.489 6.07-13.56 13.56-13.56s13.56 6.071 13.56 13.56c0 7.489-6.07 13.56-13.56 13.56s-13.56-6.071-13.56-13.56z" fill="#4472c4" fill-rule="evenodd" data-name="P"/><g data-name="P"><clipPath id="B"><path transform="matrix(1 0 0 -1 0 226.8)" d="M0 0h807.84v226.8H0z" fill-rule="evenodd"/></clipPath><g clip-path="url(#B)"><use xlink:href="#e" transform="matrix(15.72 0 0 -15.72 504.545 175.142)" fill="#fff"/></g></g><path stroke-width="2.28" stroke-miterlimit="10" fill="none" stroke="#767171" d="m508.62 128.94-.36 27.868" data-name="P"/><path d="M494.64 58.92c0-7.49 6.07-13.56 13.56-13.56s13.56 6.07 13.56 13.56-6.07 13.56-13.56 13.56-13.56-6.07-13.56-13.56z" fill="#c00000" fill-rule="evenodd" data-name="P"/><g data-name="P"><clipPath id="C"><path transform="matrix(1 0 0 -1 0 226.8)" d="M0 0h807.84v226.8H0z" fill-rule="evenodd"/></clipPath><g clip-path="url(#C)"><use xlink:href="#c" transform="matrix(15.72 0 0 -15.72 504.86 63.41)" fill="#fff"/></g></g><path stroke-width="2.28" stroke-miterlimit="10" fill="none" stroke="#767171" d="m508.26 72.54.36 28.56M498.57 68.58l-35.91 36.62M498.69 124.86l-36.63 35.924M498.57 160.784l-35.91-35.924M494.71 170.34h-28.57M554.37 160.784l-35.91-35.924" data-name="P"/><path stroke-width=".96" stroke-miterlimit="10" fill="none" stroke="#515151" d="M424.92 198.48h167.16V31.32H424.92z" data-name="P"/><g data-name="P"><clipPath id="D"><path transform="matrix(1 0 0 -1 0 226.8)" d="M0 0h807.84v226.8H0z" fill-rule="evenodd"/></clipPath><g clip-path="url(#D)"><use xlink:href="#k" transform="matrix(15.72 0 0 -15.72 557.644 53.134)"/></g><clipPath id="E"><path transform="matrix(1 0 0 -1 0 226.8)" d="M0 0h807.84v226.8H0z" fill-rule="evenodd"/></clipPath><g clip-path="url(#E)"><symbol id="F"><path d="m.063 0 .006.03.021.005C.096.036.101.038.105.04a.036.036 0 0 1 .011.01l.01.017A2.056 2.056 0 0 1 .144.14l.098.442H.176L.148.58a.06.06 0 0 1-.02-.006A.064.064 0 0 1 .11.564.5.5 0 0 1 .052.468H0l.037.165h.532L.53.461H.48v.028L.478.506a.199.199 0 0 1-.01.053A.052.052 0 0 1 .46.57a.022.022 0 0 1-.009.007.046.046 0 0 1-.013.004.167.167 0 0 1-.02 0H.339L.24.137A.477.477 0 0 1 .229.07C.229.063.23.057.232.052A.025.025 0 0 1 .24.041.044.044 0 0 1 .258.033.175.175 0 0 1 .286.03L.279 0H.063z"/></symbol><use xlink:href="#F" transform="matrix(11.52 0 0 -11.52 567.951 53.02)"/></g><clipPath id="G"><path transform="matrix(1 0 0 -1 0 226.8)" d="M0 0h807.84v226.8H0z" fill-rule="evenodd"/></clipPath><g clip-path="url(#G)"><symbol id="H"><path d="M0 0v.075h.563V0H0z"/></symbol><use xlink:href="#H" transform="matrix(11.52 0 0 -11.52 575.85 50.157)"/></g><clipPath id="I"><path transform="matrix(1 0 0 -1 0 226.8)" d="M0 0h807.84v226.8H0z" fill-rule="evenodd"/></clipPath><g clip-path="url(#I)"><use xlink:href="#v" transform="matrix(11.52 0 0 -11.52 584.33 53.02)"/></g></g><path d="M633.84 114.96c0-7.69 6.26-13.92 13.98-13.92 7.72 0 13.98 6.23 13.98 13.92 0 7.69-6.26 13.92-13.98 13.92-7.72 0-13.98-6.23-13.98-13.92z" fill="#548235" fill-rule="evenodd" data-name="P"/><g data-name="P"><clipPath id="J"><path transform="matrix(1 0 0 -1 0 226.8)" d="M0 0h807.84v226.8H0z" fill-rule="evenodd"/></clipPath><g clip-path="url(#J)"><use xlink:href="#x" transform="matrix(15.744 0 0 -15.744 643.473 119.5)" fill="#fff"/></g></g><path d="M633.84 170.28c0-7.489 6.1-13.56 13.62-13.56s13.62 6.071 13.62 13.56c0 7.489-6.1 13.56-13.62 13.56s-13.62-6.071-13.62-13.56z" fill="#c00000" fill-rule="evenodd" data-name="P"/><g data-name="P"><clipPath id="K"><path transform="matrix(1 0 0 -1 0 226.8)" d="M0 0h807.84v226.8H0z" fill-rule="evenodd"/></clipPath><g clip-path="url(#K)"><use xlink:href="#c" transform="matrix(15.72 0 0 -15.72 644.18 174.912)" fill="#fff"/></g></g><path stroke-width="2.28" stroke-miterlimit="10" fill="none" stroke="#767171" d="m647.94 128.94-.36 27.868" data-name="P"/><path d="M745.32 170.28c0-7.489 6.07-13.56 13.56-13.56s13.56 6.071 13.56 13.56c0 7.489-6.07 13.56-13.56 13.56s-13.56-6.071-13.56-13.56z" fill="#4472c4" fill-rule="evenodd" data-name="P"/><g data-name="P"><clipPath id="L"><path transform="matrix(1 0 0 -1 0 226.8)" d="M0 0h807.84v226.8H0z" fill-rule="evenodd"/></clipPath><g clip-path="url(#L)"><use xlink:href="#e" transform="matrix(15.72 0 0 -15.72 755.315 175.142)" fill="#fff"/></g></g><path stroke-width="2.28" stroke-miterlimit="10" fill="none" stroke="#767171" d="M745.39 170.34h-28.57" data-name="P"/><path d="M689.64 114.96c0-7.69 6.23-13.92 13.92-13.92 7.69 0 13.92 6.23 13.92 13.92 0 7.69-6.23 13.92-13.92 13.92-7.69 0-13.92-6.23-13.92-13.92z" fill="#548235" fill-rule="evenodd" data-name="P"/><g data-name="P"><clipPath id="M"><path transform="matrix(1 0 0 -1 0 226.8)" d="M0 0h807.84v226.8H0z" fill-rule="evenodd"/></clipPath><g clip-path="url(#M)"><use xlink:href="#x" transform="matrix(15.744 0 0 -15.744 699.203 119.5)" fill="#fff"/></g></g><path d="M689.64 170.28c0-7.489 6.07-13.56 13.56-13.56s13.56 6.071 13.56 13.56c0 7.489-6.07 13.56-13.56 13.56s-13.56-6.071-13.56-13.56z" fill="#c00000" fill-rule="evenodd" data-name="P"/><g data-name="P"><clipPath id="N"><path transform="matrix(1 0 0 -1 0 226.8)" d="M0 0h807.84v226.8H0z" fill-rule="evenodd"/></clipPath><g clip-path="url(#N)"><use xlink:href="#c" transform="matrix(15.72 0 0 -15.72 699.91 174.912)" fill="#fff"/></g></g><path stroke-width="2.28" stroke-miterlimit="10" fill="none" stroke="#767171" d="m703.62 128.94-.36 27.868" data-name="P"/><path d="M689.64 58.92c0-7.49 6.07-13.56 13.56-13.56s13.56 6.07 13.56 13.56-6.07 13.56-13.56 13.56-13.56-6.07-13.56-13.56z" fill="#c00000" fill-rule="evenodd" data-name="P"/><g data-name="P"><clipPath id="O"><path transform="matrix(1 0 0 -1 0 226.8)" d="M0 0h807.84v226.8H0z" fill-rule="evenodd"/></clipPath><g clip-path="url(#O)"><use xlink:href="#c" transform="matrix(15.72 0 0 -15.72 699.91 63.41)" fill="#fff"/></g></g><path stroke-width="2.28" stroke-miterlimit="10" fill="none" stroke="#767171" d="m703.26 72.54.36 28.56M693.69 68.58l-35.91 36.62M693.81 124.86l-36.63 35.924M693.69 160.784l-35.91-35.924M689.71 170.34h-28.57M749.37 160.784l-35.91-35.924" data-name="P"/><path stroke-width=".96" stroke-miterlimit="10" fill="none" stroke="#515151" d="M619.92 198.48h167.16V31.32H619.92z" data-name="P"/><g data-name="P"><clipPath id="P"><path transform="matrix(1 0 0 -1 0 226.8)" d="M0 0h807.84v226.8H0z" fill-rule="evenodd"/></clipPath><g clip-path="url(#P)"><use xlink:href="#k" transform="matrix(15.72 0 0 -15.72 752.694 53.134)"/></g><clipPath id="Q"><path transform="matrix(1 0 0 -1 0 226.8)" d="M0 0h807.84v226.8H0z" fill-rule="evenodd"/></clipPath><g clip-path="url(#Q)"><use xlink:href="#F" transform="matrix(11.52 0 0 -11.52 762.991 53.02)"/></g></g><path d="M202.14 114.24h26.31v1.56h-26.31zm20.71-3.39 7.15 4.17-7.15 4.17c-.37.22-.85.1-1.07-.28a.77.77 0 0 1 .28-1.06l6-3.5v1.34l-6-3.5a.77.77 0 0 1-.28-1.06c.22-.38.7-.5 1.07-.28zM592.14 114.24h26.31v1.56h-26.31zm20.71-3.39 7.15 4.17-7.15 4.17c-.37.22-.85.1-1.07-.28a.77.77 0 0 1 .28-1.06l6-3.5v1.34l-6-3.5a.77.77 0 0 1-.28-1.06c.22-.38.7-.5 1.07-.28z" fill="#6c6c6c" data-name="P"/><g data-name="P"><clipPath id="R"><path transform="matrix(1 0 0 -1 0 226.8)" d="M0 0h807.84v226.8H0z" fill-rule="evenodd"/></clipPath><g clip-path="url(#R)"><symbol id="S"><path d="M.667 0v.137h.137V0H.667M.333 0v.137h.138V0H.333M0 0v.137h.137V0H0z"/></symbol><use xlink:href="#S" transform="matrix(15.744 0 0 -15.744 404.745 117.98)"/></g></g><g data-name="P"><clipPath id="T"><path transform="matrix(1 0 0 -1 0 226.8)" d="M0 0h807.84v226.8H0z" fill-rule="evenodd"/></clipPath><g clip-path="url(#T)"><symbol id="U"><path d="M.58.29C.58.188.557.113.512.068.466.023.392 0 .29 0 .192 0 .119.024.071.07.024.119.001.192 0 .29v.447h.15V.285C.15.234.16.195.185.17.208.144.243.131.29.131c.05 0 .086.012.107.035C.42.19.43.229.43.286v.451h.15V.29z"/></symbol><symbol id="V"><path d="M0 0v.531h.133V.453l.018.026c.035.044.085.066.15.066.057 0 .1-.016.132-.05A.191.191 0 0 0 .481.358V0h-.14v.332C.34.365.334.389.319.405.305.42.284.429.254.429.218.429.19.418.17.396.15.373.14.34.14.3V0H0z"/></symbol><symbol id="W"><path d="M.271 0a.266.266 0 0 0-.198.075A.276.276 0 0 0 0 .276c0 .087.024.156.073.206.05.052.115.077.198.077.084 0 .15-.025.2-.077A.285.285 0 0 0 .542.276.276.276 0 0 0 .47.075.266.266 0 0 0 .271 0m0 .117c.042 0 .074.014.096.041a.188.188 0 0 1 .032.12C.4.332.39.372.367.4.345.428.313.442.27.442.23.442.198.428.176.4A.196.196 0 0 1 .144.278a.19.19 0 0 1 .032-.12C.198.131.23.118.271.118z"/></symbol><symbol id="X"><path d="M0 .731h.14V.476l.003.003c.038.054.088.08.15.08A.2.2 0 0 0 .454.484.3.3 0 0 0 .517.288.33.33 0 0 0 .455.079.196.196 0 0 0 .292 0a.18.18 0 0 0-.149.074L.137.082V.014H0V.73M.252.115C.29.115.32.13.341.157a.193.193 0 0 1 .032.118c0 .051-.011.09-.032.12a.103.103 0 0 1-.088.043.102.102 0 0 1-.088-.044A.21.21 0 0 1 .133.27c0-.048.01-.086.032-.114a.104.104 0 0 1 .087-.04z"/></symbol><symbol id="Y"><path d="M.336.386c0 .02-.009.037-.025.05a.112.112 0 0 1-.068.018A.12.12 0 0 1 .18.439.043.043 0 0 1 .157.401c0-.012.009-.022.026-.03a.478.478 0 0 1 .09-.027A.472.472 0 0 0 .446.28C.475.258.489.222.489.173A.15.15 0 0 0 .426.047.27.27 0 0 0 .259 0 .325.325 0 0 0 .07.047.168.168 0 0 0 0 .184h.143A.07.07 0 0 1 .175.126a.152.152 0 0 1 .084-.02C.287.105.31.11.325.12s.024.023.024.04C.349.172.34.182.326.19a.351.351 0 0 1-.08.026.53.53 0 0 0-.181.064C.035.302.02.336.02.383c0 .053.02.095.058.127.04.033.091.05.155.05C.306.56.363.542.408.51A.147.147 0 0 0 .475.386h-.14z"/></symbol><symbol id="Z"><path d="M.252 0a.236.236 0 0 0-.187.075A.313.313 0 0 0 0 .288a.28.28 0 0 0 .067.199.24.24 0 0 0 .185.072C.333.56.396.535.44.485.483.437.505.367.505.276c.001-.01 0-.02-.002-.031H.14A.184.184 0 0 1 .17.15C.189.124.22.111.267.111c.02 0 .04.006.058.018a.07.07 0 0 1 .033.044H.5A.203.203 0 0 0 .417.046.279.279 0 0 0 .252 0M.36.334a.146.146 0 0 1-.025.075C.316.432.288.444.25.444A.094.094 0 0 1 .168.403.183.183 0 0 1 .143.334h.216z"/></symbol><symbol id="aa"><path d="M0 0v.531h.133V.436c.005.01.01.02.017.03.033.053.075.08.127.08L.31.544V.402a.405.405 0 0 1-.042.002C.224.404.193.394.171.372.151.351.141.32.141.276V0H0z"/></symbol><symbol id="ab"><path d="M0 .531h.155L.268.135l.114.396H.53L.338 0H.192L0 .531z"/></symbol><symbol id="ac"><path d="M.226 0a.199.199 0 0 0-.164.08A.328.328 0 0 0 0 .287c0 .081.02.147.062.196.041.05.096.075.163.075.06 0 .109-.025.146-.076L.376.475v.256h.14V.014H.382v.068L.378.078A.181.181 0 0 0 .226 0m.038.438A.103.103 0 0 1 .176.395a.198.198 0 0 1-.032-.12c0-.05.01-.09.031-.118A.104.104 0 0 1 .263.115C.301.115.33.13.352.16a.21.21 0 0 1 .031.123c0 .049-.01.087-.031.114a.105.105 0 0 1-.088.041z"/></symbol><symbol id="ad"><path d="M0 0z"/></symbol><symbol id="ae"><path d="M.34 0a.32.32 0 0 0-.248.101A.391.391 0 0 0 0 .375c0 .117.032.21.096.278.064.07.15.104.258.104A.341.341 0 0 0 .57.69.254.254 0 0 0 .669.515h-.15a.121.121 0 0 1-.053.082.167.167 0 0 1-.104.035A.186.186 0 0 1 .21.564.288.288 0 0 1 .154.377c0-.081.018-.143.053-.186C.243.149.294.127.362.127.42.127.465.15.498.194a.258.258 0 0 1 .04.088v.002h-.17v.123h.3V.02h-.1L.555.113.545.1A.243.243 0 0 0 .34 0z"/></symbol><symbol id="af"><path d="M.164 0a.167.167 0 0 0-.12.042A.146.146 0 0 0 0 .153C0 .202.014.241.04.27.069.299.108.317.16.325L.25.337a.197.197 0 0 1 .06.017c.007.003.012.01.016.018a.047.047 0 0 1-.019.061.13.13 0 0 1-.069.015.092.092 0 0 1-.062-.02.073.073 0 0 1-.024-.055H.019c.002.062.024.109.063.14.04.03.097.046.173.046A.259.259 0 0 0 .412.517.133.133 0 0 0 .469.403V.106a.15.15 0 0 1 .006-.05A.044.044 0 0 1 .5.034v-.02H.347a.346.346 0 0 0-.012.063v.001A.213.213 0 0 0 .163 0m.168.21v.061A.228.228 0 0 0 .268.249L.216.239A.106.106 0 0 1 .16.214.06.06 0 0 1 .141.168a.07.07 0 0 1 .017-.05A.063.063 0 0 1 .206.1c.045 0 .08.016.107.047.006.007.01.016.014.028A.123.123 0 0 1 .332.21z"/></symbol><symbol id="ag"><path d="M0 .74h.133V.66l.01.014c.037.053.087.08.149.08A.199.199 0 0 0 .454.678.3.3 0 0 0 .516.482.33.33 0 0 0 .454.273.195.195 0 0 0 .292.194.178.178 0 0 0 .143.27L.14.272V0H0v.74M.252.31C.289.31.319.324.34.352a.193.193 0 0 1 .032.117C.372.52.36.56.34.59a.102.102 0 0 1-.088.043.102.102 0 0 1-.087-.044.212.212 0 0 1-.032-.124c0-.048.01-.086.032-.113A.104.104 0 0 1 .252.31z"/></symbol><symbol id="ah"><path d="M0 0v.718h.14V.464l.011.015c.035.044.085.066.15.066.057 0 .1-.016.132-.05A.191.191 0 0 0 .481.358V0h-.14v.332C.34.365.334.389.319.405.305.42.284.429.254.429.218.429.19.418.17.396.15.373.14.34.14.3V0H0z"/></symbol><symbol id="ai"><path d="M0 0v.718h.307C.406.718.481.688.532.63.583.573.609.488.609.376.609.253.582.16.529.096.476.032.398 0 .295 0H0m.15.124h.126c.061 0 .107.02.137.061A.31.31 0 0 1 .46.371C.459.445.445.5.417.538.388.576.346.594.289.594h-.14v-.47z"/></symbol><symbol id="aj"><path d="M.001 0v.531h.14V0h-.14M0 .723h.143v-.13H0v.13z"/></symbol><symbol id="ak"><path d="M.218.433V0h-.14v.433H0v.098h.078v.045c0 .05.013.089.04.114.028.025.069.038.124.038C.267.728.29.727.308.724V.612H.264C.245.612.233.61.227.602.22.593.217.577.217.554V.531h.091V.433h-.09z"/></symbol><symbol id="al"><path d="M.14.545V.212C.14.18.147.156.161.14.175.125.197.117.226.117.262.117.29.127.31.15c.02.022.029.054.029.096v.299h.14V.014H.346v.08A.15.15 0 0 0 .328.065C.294.022.244 0 .178 0c-.056 0-.1.016-.131.05A.193.193 0 0 0 0 .186v.358h.14z"/></symbol><symbol id="am"><path d="M0 0v.718h.15v-.27h.28v.27h.151V0H.43v.325H.15V0H0z"/></symbol><symbol id="an"><path d="M.3.003A1.068 1.068 0 0 0 .212 0C.163 0 .128.009.106.026.084.044.074.073.074.114v.325H0v.098h.074V.68h.14V.537h.085V.44H.214V.137c0-.012.003-.02.01-.024A.116.116 0 0 1 .272.107h.028V.003z"/></symbol><symbol id="ao"><path d="M.53.745.338.203A.535.535 0 0 0 .26.034C.238.011.2 0 .144 0L.077.001v.113A.103.103 0 0 1 .104.112c.037 0 .061.007.073.023.007.01.014.03.021.06L0 .745h.155L.27.351l.112.394h.146z"/></symbol><use xlink:href="#U" transform="matrix(15.744 0 0 -15.744 177.75 24.068)"/><use xlink:href="#V" transform="matrix(15.744 0 0 -15.744 189.057 23.76)"/><use xlink:href="#W" transform="matrix(15.744 0 0 -15.744 198.192 23.975)"/><use xlink:href="#X" transform="matrix(15.744 0 0 -15.744 208.234 23.975)"/><use xlink:href="#Y" transform="matrix(15.744 0 0 -15.744 217.362 23.975)"/><use xlink:href="#Z" transform="matrix(15.744 0 0 -15.744 226.008 23.975)"/><use xlink:href="#aa" transform="matrix(15.744 0 0 -15.744 235.47 23.76)"/><use xlink:href="#ab" transform="matrix(15.744 0 0 -15.744 240.795 23.76)"/><use xlink:href="#Z" transform="matrix(15.744 0 0 -15.744 249.734 23.975)"/><use xlink:href="#ac" transform="matrix(15.744 0 0 -15.744 258.665 23.975)"/><use xlink:href="#ad" transform="matrix(15.744 0 0 -15.744 267.746 23.76)"/><use xlink:href="#ae" transform="matrix(15.744 0 0 -15.744 272.894 24.068)"/><use xlink:href="#aa" transform="matrix(15.744 0 0 -15.744 285.458 23.76)"/><use xlink:href="#af" transform="matrix(15.744 0 0 -15.744 291.029 23.975)"/><use xlink:href="#ag" transform="matrix(15.744 0 0 -15.744 300.352 27.035)"/><use xlink:href="#ah" transform="matrix(15.744 0 0 -15.744 310.018 23.76)"/><use xlink:href="#ad" transform="matrix(15.744 0 0 -15.744 318.615 23.76)"/><use xlink:href="#ai" transform="matrix(15.744 0 0 -15.744 324.254 23.76)"/><use xlink:href="#aj" transform="matrix(15.744 0 0 -15.744 335.553 23.76)"/><use xlink:href="#ak" transform="matrix(15.744 0 0 -15.744 338.937 23.76)"/><use xlink:href="#ak" transform="matrix(15.744 0 0 -15.744 344.227 23.76)"/><use xlink:href="#al" transform="matrix(15.744 0 0 -15.744 350.401 23.975)"/><use xlink:href="#Y" transform="matrix(15.744 0 0 -15.744 359.452 23.975)"/><use xlink:href="#aj" transform="matrix(15.744 0 0 -15.744 368.82 23.76)"/><use xlink:href="#W" transform="matrix(15.744 0 0 -15.744 372.651 23.975)"/><use xlink:href="#V" transform="matrix(15.744 0 0 -15.744 382.755 23.76)"/><use xlink:href="#ad" transform="matrix(15.744 0 0 -15.744 391.353 23.76)"/><use xlink:href="#am" transform="matrix(15.744 0 0 -15.744 396.876 23.76)"/><use xlink:href="#aj" transform="matrix(15.744 0 0 -15.744 408.26 23.76)"/><use xlink:href="#Y" transform="matrix(15.744 0 0 -15.744 411.958 23.975)"/><use xlink:href="#an" transform="matrix(15.744 0 0 -15.744 420.396 23.852)"/><use xlink:href="#W" transform="matrix(15.744 0 0 -15.744 426.102 23.975)"/><use xlink:href="#aa" transform="matrix(15.744 0 0 -15.744 436.19 23.76)"/><use xlink:href="#ao" transform="matrix(15.744 0 0 -15.744 441.462 27.127)"/></g></g><g data-name="P"><clipPath id="ap"><path transform="matrix(1 0 0 -1 0 226.8)" d="M0 0h807.84v226.8H0z" fill-rule="evenodd"/></clipPath><g clip-path="url(#ap)"><symbol id="aq"><path d="M.345 0a.325.325 0 0 0-.252.101A.387.387 0 0 0 0 .375a.4.4 0 0 0 .093.278.322.322 0 0 0 .252.104C.45.757.535.722.597.653A.4.4 0 0 0 .69.375.387.387 0 0 0 .597.1.325.325 0 0 0 .345 0m0 .127c.06 0 .109.022.143.066A.289.289 0 0 1 .54.375a.3.3 0 0 1-.052.187.17.17 0 0 1-.143.067.17.17 0 0 1-.143-.067A.3.3 0 0 1 .15.375.29.29 0 0 1 .2.193.173.173 0 0 1 .345.127z"/></symbol><symbol id="ar"><path d="M.426.522a.106.106 0 0 1-.045.081.176.176 0 0 1-.107.03.141.141 0 0 1-.089-.025.083.083 0 0 1-.032-.07C.153.517.164.5.187.488a.679.679 0 0 1 .14-.041.514.514 0 0 0 .21-.081C.572.336.59.286.59.22A.19.19 0 0 0 .51.06.354.354 0 0 0 .295 0a.326.326 0 0 0-.213.063.234.234 0 0 0-.082.18h.145A.112.112 0 0 1 .186.153a.172.172 0 0 1 .109-.03C.343.124.38.13.407.146c.027.016.04.038.04.065 0 .027-.01.047-.029.06a.413.413 0 0 1-.12.04.64.64 0 0 0-.23.082C.032.422.013.468.013.53c0 .07.025.125.075.165.05.041.12.062.205.062.08 0 .146-.021.196-.064.05-.042.079-.1.084-.171H.426z"/></symbol><use xlink:href="#aq" transform="matrix(15.744 0 0 -15.744 629.632 24.068)"/><use xlink:href="#X" transform="matrix(15.744 0 0 -15.744 642.15 23.975)"/><use xlink:href="#Y" transform="matrix(15.744 0 0 -15.744 651.277 23.975)"/><use xlink:href="#Z" transform="matrix(15.744 0 0 -15.744 659.955 23.975)"/><use xlink:href="#aa" transform="matrix(15.744 0 0 -15.744 669.354 23.76)"/><use xlink:href="#ab" transform="matrix(15.744 0 0 -15.744 674.71 23.76)"/><use xlink:href="#Z" transform="matrix(15.744 0 0 -15.744 683.618 23.975)"/><use xlink:href="#ac" transform="matrix(15.744 0 0 -15.744 692.596 23.975)"/><use xlink:href="#ad" transform="matrix(15.744 0 0 -15.744 701.677 23.76)"/><use xlink:href="#ar" transform="matrix(15.744 0 0 -15.744 706.716 24.068)"/><use xlink:href="#V" transform="matrix(15.744 0 0 -15.744 717.625 23.76)"/><use xlink:href="#af" transform="matrix(15.744 0 0 -15.744 726.676 23.975)"/><use xlink:href="#ag" transform="matrix(15.744 0 0 -15.744 735.952 27.035)"/><use xlink:href="#Y" transform="matrix(15.744 0 0 -15.744 745.064 23.975)"/><use xlink:href="#ah" transform="matrix(15.744 0 0 -15.744 754.371 23.76)"/><use xlink:href="#W" transform="matrix(15.744 0 0 -15.744 763.507 23.975)"/><use xlink:href="#an" transform="matrix(15.744 0 0 -15.744 772.742 23.852)"/></g></g></svg>